<svg width="32" height="32" viewBox="0 0 32 32" fill="none" xmlns="http://www.w3.org/2000/svg">
<g clip-path="url(#clip0_33_26)">
<path d="M24.5 0H7.5C3.35786 0 0 3.35786 0 7.5V24.5C0 28.6421 3.35786 32 7.5 32H24.5C28.6421 32 32 28.6421 32 24.5V7.5C32 3.35786 28.6421 0 24.5 0Z" fill="#242938"/>
<g clip-path="url(#clip1_33_26)">
<path d="M26.3616 16.0654C22.8108 16.1312 23.5504 18.252 21.0479 18.7884C18.5057 19.3333 18.1043 12.9304 15.5628 12.9304C13.0209 12.9304 12.4578 19.1501 9.27507 23.4199L9.18427 23.5408L16.0081 27.2572L26.3616 21.618V16.0654Z" fill="#36A2EB"/>
<path d="M26.3617 15.8724C25.173 14.4331 24.3667 12.7783 22.6321 12.7783C19.5623 12.7783 20.37 17.503 16.9774 17.503C13.5845 17.503 13.2278 12.421 9.38418 17.1983C8.15943 18.7204 7.17361 20.4177 6.39923 22.0238L16.0081 27.2575L26.3617 21.6182V15.8724Z" fill="#FFCE56"/>
<path opacity="0.8" d="M5.65417 17.8296C6.81907 14.786 7.32183 12.3209 9.54574 12.3209C12.9383 12.3209 13.7459 21.3134 16.6543 20.3986C19.5623 19.4842 19.2391 14.6068 23.7629 14.6068C24.624 14.6068 25.5031 15.1045 26.3618 15.9096V21.6181L16.0082 27.2573L5.65417 21.6181V17.8296Z" fill="#FE6184"/>
<path d="M16 27.9644L5 21.9734V9.9911L16 4L27 9.9911V21.9733L16 27.9644ZM6.29237 21.2695L16 26.5568L25.7076 21.2695V10.6951L16 5.40776L6.29237 10.6951V21.2695Z" fill="#E7E9ED"/>
</g>
</g>
<defs>
<clipPath id="clip0_33_26">
<rect width="32" height="32" fill="white"/>
</clipPath>
<clipPath id="clip1_33_26">
<rect width="22" height="24" fill="white" transform="translate(5 4)"/>
</clipPath>
</defs>
</svg>
