<svg width="32" height="32" viewBox="0 0 32 32" fill="none" xmlns="http://www.w3.org/2000/svg">
<g clip-path="url(#clip0_1_160)">
<path d="M24.5 0.00012207H7.5C3.35786 0.00012207 0 3.35799 0 7.50012V24.5001C0 28.6423 3.35786 32.0001 7.5 32.0001H24.5C28.6421 32.0001 32 28.6423 32 24.5001V7.50012C32 3.35799 28.6421 0.00012207 24.5 0.00012207Z" fill="#242938"/>
<path d="M27.1424 21.6468L24.1108 19.7046C25.576 17.1778 26.3666 13.1408 25.6897 6.78038C25.6237 5.84256 24.7457 5.68262 24.4966 6.67197C23.4379 9.96051 19.9183 11.1821 17.2601 11.6358C16.2367 11.0584 15.123 11.1927 14.1071 11.8753C11.6166 11.6852 9.75442 10.2047 8.61557 7.35334L8.49107 12.8977C8.23615 13.4167 8.14233 13.9116 8.19596 14.3845C7.02305 13.1145 5.39334 12.4067 4.00864 13.3763C1.2442 15.7387 4.71592 21.0129 7.77071 20.401C12.1838 23.5983 17.8761 25.0405 22.0484 22.0842L26.1079 23.7157C26.8074 24.9168 26.9322 24.3481 30 26C29.281 23.4735 29.0214 21.4683 27.1424 21.6468ZM4.48647 16.0567C3.89869 15.6358 3.89869 14.5779 4.48647 14.1569C5.07425 13.736 5.81295 14.265 5.81295 15.1068C5.81295 15.9486 5.07425 16.4776 4.48647 16.0567ZM14.5467 12.064C16.317 11.0075 18.5419 12.3353 18.5419 14.4482C18.5419 16.5612 16.317 17.8889 14.5467 16.8325C12.7764 15.776 12.7764 13.1205 14.5467 12.064ZM9.73945 16.1472C8.2787 15.2728 8.2787 13.0751 9.73945 12.2008C11.0262 11.4306 12.604 12.1915 12.9616 13.5789C12.812 14.0201 12.7663 14.5736 12.876 15.0147C12.4072 16.2452 10.949 16.8711 9.73939 16.1471M20.3603 20.0965L20.6296 20.2652C18.4993 21.4938 15.2103 21.1172 11.2174 19.9136C14.8011 20.4166 18.3637 20.4829 21.4413 18.1461L21.9281 18.9181C20.932 19.0184 20.5213 19.6123 20.3603 20.0966M15.8591 16.121C14.9429 15.5741 14.9429 14.1997 15.8591 13.6529C16.7754 13.1062 17.9269 13.7933 17.9269 14.8869C17.9269 15.9805 16.7754 16.6677 15.8591 16.1209M12.5905 14.5475C12.5905 13.6159 11.6096 13.0305 10.8291 13.4963C10.0486 13.9621 10.0486 15.1328 10.8291 15.5986C11.6096 16.0644 12.5905 15.479 12.5905 14.5475Z" fill="white"/>
</g>
<defs>
<clipPath id="clip0_1_160">
<rect width="32" height="32" fill="white"/>
</clipPath>
</defs>
</svg>
