<svg width="32" height="32" viewBox="0 0 32 32" fill="none" xmlns="http://www.w3.org/2000/svg">
<g clip-path="url(#clip0_1_219)">
<path d="M24.5 0.00012207H7.5C3.35786 0.00012207 0 3.35799 0 7.50012V24.5001C0 28.6423 3.35786 32.0001 7.5 32.0001H24.5C28.6421 32.0001 32 28.6423 32 24.5001V7.50012C32 3.35799 28.6421 0.00012207 24.5 0.00012207Z" fill="#242938"/>
<g clip-path="url(#clip1_1_219)">
<path d="M16 27.3899C22.2905 27.3899 27.3899 22.2905 27.3899 16.0001C27.3899 9.70963 22.2905 4.61023 16 4.61023C9.70963 4.61023 4.61023 9.70963 4.61023 16.0001C4.61023 22.2905 9.70963 27.3899 16 27.3899Z" fill="white"/>
<path d="M16 4C9.37258 4 4 9.37258 4 16C4 22.6275 9.37258 28 16 28C22.6275 28 28 22.6275 28 16C28 9.37258 22.6275 4 16 4ZM16 5.22034C21.9534 5.22034 26.7797 10.0466 26.7797 16C26.7797 21.9534 21.9534 26.7797 16 26.7797C10.0466 26.7797 5.22034 21.9534 5.22034 16C5.22034 10.0466 10.0466 5.22034 16 5.22034Z" fill="#4000BF"/>
<path d="M16.1355 7.45764C20.8534 7.45764 24.6779 11.2822 24.6779 16C24.6779 20.7178 20.8534 24.5424 16.1355 24.5424C11.4177 24.5424 7.59314 20.7178 7.59314 16C7.59314 14.847 7.82157 13.7474 8.23566 12.7438C8.84027 13.5672 9.8153 14.1017 10.9152 14.1017C12.7499 14.1017 14.2372 12.6144 14.2372 10.7797C14.2372 9.6798 13.7027 8.70477 12.8793 8.10017C13.8829 7.68608 14.9825 7.45764 16.1355 7.45764Z" fill="url(#paint0_linear_1_219)"/>
</g>
</g>
<defs>
<linearGradient id="paint0_linear_1_219" x1="861.829" y1="1715.93" x2="861.829" y2="7.45764" gradientUnits="userSpaceOnUse">
<stop stop-color="#7400E1"/>
<stop offset="1" stop-color="#4000BF"/>
</linearGradient>
<clipPath id="clip0_1_219">
<rect width="32" height="32" fill="white"/>
</clipPath>
<clipPath id="clip1_1_219">
<rect width="24" height="24" fill="white" transform="translate(4 4)"/>
</clipPath>
</defs>
</svg>
