<svg width="32" height="32" viewBox="0 0 32 32" fill="none" xmlns="http://www.w3.org/2000/svg">
<g clip-path="url(#clip0_1_162)">
<path d="M24.5 0.00012207H7.5C3.35786 0.00012207 0 3.35799 0 7.50012V24.5001C0 28.6423 3.35786 32.0001 7.5 32.0001H24.5C28.6421 32.0001 32 28.6423 32 24.5001V7.50012C32 3.35799 28.6421 0.00012207 24.5 0.00012207Z" fill="#242938"/>
<path d="M5.59755 6.00005C5.50876 5.9989 5.42094 6.01813 5.34126 6.05617C5.26158 6.09421 5.19228 6.14999 5.13901 6.21896C4.81727 6.61473 5.1067 7.01451 5.47243 7.34221C5.65873 7.5084 7.09416 8.93665 8.61209 10.481C9.09147 9.82875 9.65082 9.23551 10.2778 8.71441C8.36185 7.56112 6.55381 6.44855 6.33932 6.30305C6.0994 6.13553 5.8416 6.00005 5.59755 6.00005ZM10.2778 8.71441C11.971 9.73688 13.7475 10.7907 14.5779 11.2419C15.9247 11.9727 18.0228 13.6305 18.3308 15.1876C18.821 15.6014 20.3293 16.8942 20.7087 17.336C21.3495 17.1485 22.1009 17.4541 22.5986 18.3298C23.3899 19.7414 22.8069 21.6668 20.794 22.7687C20.7063 22.8517 20.6157 22.9319 20.5224 23.009L20.794 22.7687C21.8396 21.4659 20.1395 20.6003 19.7167 19.3309C19.6369 19.109 19.6026 18.8741 19.6157 18.6395C19.1255 18.3858 17.6825 17.3467 17.0521 16.8875C15.4022 17.0297 13.1961 15.3131 12.1512 14.1485C11.5104 13.4357 10.0228 11.9093 8.61209 10.481C7.39347 12.1415 6.73865 14.1292 6.73737 16.168C6.73852 18.1127 7.33333 20.0134 8.44665 21.6301C9.55997 23.2467 11.1419 24.5068 12.9925 25.251C14.8431 25.9953 16.8794 26.1904 18.8441 25.8116C20.8089 25.4329 22.6139 24.4973 24.0313 23.1231C25.4486 21.7475 26.4139 19.9947 26.8051 18.0864C27.1963 16.1782 26.9958 14.2002 26.2291 12.4025C25.4616 10.606 24.1628 9.07068 22.4969 7.99051C20.8309 6.91034 18.8726 6.33381 16.8692 6.33375C14.4497 6.33733 12.1114 7.18185 10.2778 8.71441ZM18.2627 15.4339C17.7898 15.5453 17.3745 16.174 17.235 16.5985C17.202 16.6993 17.1992 16.8662 17.2955 16.9009C18.0331 17.4288 18.7247 17.94 19.4974 18.4125C19.6452 18.0648 20.1815 17.5576 20.5004 17.3454L18.2627 15.4339ZM7.69294 16.8942C8.43747 18.5834 13.0057 23.2726 18.7453 19.2922C18.7419 19.5078 18.7777 19.724 18.8492 19.9282C19.2719 21.1903 21.016 22.0873 19.9848 23.3908C18.0297 24.6034 15.4015 24.4579 13.5783 23.8599C10.317 22.7894 8.15767 20.005 7.69294 16.8942ZM20.3251 17.5162C20.3039 17.5302 20.2835 17.5454 20.264 17.5616C20.2605 17.5616 20.2578 17.5689 20.2578 17.5689C20.2578 17.5645 20.2598 17.562 20.264 17.5616C20.286 17.5476 20.3031 17.5302 20.3251 17.5162Z" fill="white"/>
</g>
<defs>
<clipPath id="clip0_1_162">
<rect width="32" height="32" fill="white"/>
</clipPath>
</defs>
</svg>
