<svg width="32" height="32" viewBox="0 0 32 32" fill="none" xmlns="http://www.w3.org/2000/svg">
<g clip-path="url(#clip0_1_223)">
<path d="M28.875 0.00012207H3.125C1.39911 0.00012207 0 1.39923 0 3.12512V28.8751C0 30.601 1.39911 32.0001 3.125 32.0001H28.875C30.6009 32.0001 32 30.601 32 28.8751V3.12512C32 1.39923 30.6009 0.00012207 28.875 0.00012207Z" fill="url(#paint0_linear_1_223)"/>
<path d="M26.34 4.16016H19.58C18.7516 4.16016 18.08 4.83173 18.08 5.66016V16.6602C18.08 17.4886 18.7516 18.1602 19.58 18.1602H26.34C27.1684 18.1602 27.84 17.4886 27.84 16.6602V5.66016C27.84 4.83173 27.1684 4.16016 26.34 4.16016Z" fill="white"/>
<path d="M12.42 4.16016H5.65997C4.83155 4.16016 4.15997 4.83173 4.15997 5.66016V24.6602C4.15997 25.4886 4.83155 26.1602 5.65997 26.1602H12.42C13.2484 26.1602 13.92 25.4886 13.92 24.6602V5.66016C13.92 4.83173 13.2484 4.16016 12.42 4.16016Z" fill="white"/>
</g>
<defs>
<linearGradient id="paint0_linear_1_223" x1="1600" y1="0.00012207" x2="1600" y2="3200" gradientUnits="userSpaceOnUse">
<stop stop-color="#0091E6"/>
<stop offset="1" stop-color="#0079BF"/>
</linearGradient>
<clipPath id="clip0_1_223">
<rect width="32" height="32" fill="white"/>
</clipPath>
</defs>
</svg>
